Coordinates
version=1
nRows=41
nColumns=38
inDegrees=no

Units are S.I. units (second, meters, Newtons, ...)
If the header above contains a line with 'inDegrees', this indicates whether rotational values are in degrees (yes) or radians (no).

endheader
time	pelvis_tilt	pelvis_list	pelvis_rotation	pelvis_tx	pelvis_ty	pelvis_tz	hip_flexion_r	hip_adduction_r	hip_rotation_r	knee_angle_r	ankle_angle_r	subtalar_angle_r	mtp_angle_r	hip_flexion_l	hip_adduction_l	hip_rotation_l	knee_angle_l	ankle_angle_l	subtalar_angle_l	mtp_angle_l	lumbar_extension	lumbar_bending	lumbar_rotation	arm_flex_r	arm_add_r	arm_rot_r	elbow_flex_r	pro_sup_r	wrist_flex_r	wrist_dev_r	arm_flex_l	arm_add_l	arm_rot_l	elbow_flex_l	pro_sup_l	wrist_flex_l	wrist_dev_l
0.55	2.7764	1.33896	-1.13402	0.531597	0.20474	0.959639	0.354883	-0.0903921	-0.235881	1.06711	-0.200968	0	0	-0.283279	-0.102817	-0.376701	0.285693	-0.126522	0	0	-0.37556	0.0724382	-0.179828	0.163382	-0.562646	1.16186	0.683862	0.346486	0	0	-0.119282	-0.494184	0.0338562	1.04928	1.52737	0	0
0.56	2.77882	1.33977	-1.13454	0.532136	0.214565	0.959008	0.356691	-0.0935538	-0.245387	1.00747	-0.204692	0	0	-0.298471	-0.102607	-0.375262	0.277024	-0.123259	0	0	-0.376123	0.0722838	-0.180948	0.164042	-0.562968	1.16176	0.683809	0.346637	0	0	-0.10629	-0.493097	0.0348472	1.05905	1.53037	0	0
0.57	2.78048	1.34203	-1.13453	0.532794	0.22449	0.958106	0.357453	-0.0965199	-0.254281	0.942646	-0.208245	0	0	-0.311971	-0.102075	-0.373105	0.269009	-0.119554	0	0	-0.374974	0.0715296	-0.181748	0.163941	-0.563077	1.16093	0.683653	0.347144	0	0	-0.0933852	-0.491301	0.0359079	1.06778	1.53315	0	0
0.58	2.78188	1.34542	-1.1342	0.5335	0.234474	0.956965	0.356794	-0.0992973	-0.264223	0.874895	-0.210641	0	0	-0.323861	-0.101329	-0.370658	0.261939	-0.11525	0	0	-0.372567	0.0704279	-0.182425	0.163107	-0.563008	1.15909	0.683369	0.347931	0	0	-0.0804635	-0.488817	0.0371397	1.07543	1.5359	0	0
0.59	2.78363	1.35006	-1.13399	0.534191	0.24451	0.955604	0.354718	-0.102199	-0.274667	0.80384	-0.212605	0	0	-0.333659	-0.100387	-0.368554	0.256878	-0.11098	0	0	-0.368931	0.0688408	-0.183316	0.161871	-0.562635	1.15674	0.682684	0.348966	0	0	-0.0679754	-0.486307	0.0392692	1.08226	1.53889	0	0
0.6	2.7837	1.3541	-1.13212	0.534981	0.254779	0.954225	0.348308	-0.103062	-0.284039	0.726134	-0.215271	0	0	-0.343864	-0.10037	-0.366861	0.252637	-0.10632	0	0	-0.365409	0.0678694	-0.183863	0.160205	-0.562199	1.15425	0.681851	0.35066	0	0	-0.0565008	-0.483405	0.0415378	1.08872	1.54255	0	0
0.61	2.7807	1.35823	-1.12726	0.535941	0.265229	0.952776	0.338451	-0.10116	-0.290568	0.641242	-0.219384	0	0	-0.353515	-0.101243	-0.365208	0.249391	-0.100883	0	0	-0.36125	0.0673924	-0.184055	0.157897	-0.561368	1.15095	0.680628	0.352733	0	0	-0.0459422	-0.479866	0.0433148	1.09448	1.54617	0	0
0.62	2.77745	1.36326	-1.12232	0.537105	0.275875	0.951105	0.326994	-0.0974279	-0.2937	0.55192	-0.225651	0	0	-0.361919	-0.102154	-0.363873	0.247566	-0.0949125	0	0	-0.355778	0.0662089	-0.184167	0.154659	-0.559844	1.14649	0.679003	0.355348	0	0	-0.0369492	-0.476417	0.0447729	1.09995	1.55031	0	0
0.63	2.77625	1.3687	-1.11961	0.538466	0.286745	0.949228	0.312141	-0.0926134	-0.292731	0.458672	-0.230618	0	0	-0.369789	-0.102932	-0.363374	0.247208	-0.0888807	0	0	-0.349519	0.0642939	-0.184308	0.150724	-0.558334	1.14154	0.678154	0.357967	0	0	-0.0294469	-0.472763	0.0457555	1.10548	1.55344	0	0
0.64	2.77602	1.37387	-1.11796	0.540013	0.297798	0.947272	0.293387	-0.0866847	-0.286638	0.36209	-0.236414	0	0	-0.377566	-0.104143	-0.363254	0.248318	-0.082834	0	0	-0.34315	0.062104	-0.184354	0.146637	-0.556445	1.13701	0.677105	0.360859	0	0	-0.0231193	-0.469073	0.0466482	1.11062	1.55624	0	0
0.65	2.77605	1.37888	-1.11624	0.541734	0.309038	0.945273	0.270675	-0.0796182	-0.273628	0.261922	-0.247674	0	0	-0.384841	-0.106044	-0.362396	0.250987	-0.076696	0	0	-0.336614	0.0596086	-0.18484	0.142567	-0.55335	1.13293	0.674617	0.364773	0	0	-0.0184455	-0.465754	0.0471591	1.11565	1.55933	0	0
0.66	2.77636	1.38426	-1.11538	0.543572	0.32035	0.943144	0.246398	-0.0728093	-0.251618	0.164062	-0.261727	0	0	-0.391023	-0.107882	-0.36187	0.255541	-0.0704387	0	0	-0.329489	0.056717	-0.185351	0.139004	-0.550342	1.1297	0.672345	0.368408	0	0	-0.0151253	-0.462314	0.0473699	1.12022	1.562	0	0
0.67	2.78042	1.38884	-1.11801	0.545346	0.331757	0.940955	0.221183	-0.0681448	-0.226133	0.0755582	-0.277462	0	0	-0.397407	-0.109706	-0.362174	0.261899	-0.0642965	0	0	-0.323259	0.0536906	-0.18648	0.135667	-0.548105	1.12672	0.671397	0.371355	0	0	-0.0130598	-0.459026	0.047401	1.12464	1.56404	0	0
0.68	2.78852	1.39208	-1.1237	0.546878	0.343306	0.938802	0.200104	-0.0667847	-0.20941	0.0114488	-0.287618	0	0	-0.404606	-0.11188	-0.363303	0.269711	-0.0588298	0	0	-0.318315	0.0514293	-0.188722	0.132612	-0.547603	1.12433	0.672631	0.373628	0	0	-0.0118446	-0.454829	0.0470499	1.12839	1.56574	0	0
0.69	2.79847	1.39479	-1.13139	0.548239	0.354851	0.936722	0.192264	-0.0684513	-0.213958	0	-0.287348	0	0	-0.411789	-0.113673	-0.364299	0.277635	-0.0567534	0	0	-0.314314	0.0494213	-0.190872	0.130605	-0.547881	1.12346	0.674124	0.37451	0	0	-0.0115343	-0.451105	0.0480436	1.13177	1.56708	0	0
0.7	2.80587	1.39383	-1.13459	0.549458	0.366461	0.935034	0.184365	-0.0677742	-0.228101	0	-0.285493	0	0	-0.42034	-0.119283	-0.366518	0.289899	-0.0535653	0	0	-0.313716	0.0502501	-0.194624	0.129293	-0.548759	1.12267	0.676432	0.375893	0	0	-0.0121397	-0.446737	0.0480223	1.13465	1.57016	0	0
0.71	2.8062	1.38946	-1.12958	0.550785	0.378151	0.933756	0.174339	-0.0626745	-0.244056	0	-0.285876	0	0	-0.430606	-0.129004	-0.36922	0.303823	-0.051199	0	0	-0.316136	0.0542635	-0.199108	0.128655	-0.549588	1.12206	0.678951	0.377174	0	0	-0.0135681	-0.442101	0.0473644	1.13698	1.5708	0	0
0.72	2.80369	1.38331	-1.12274	0.552315	0.389848	0.932698	0.167702	-0.0568225	-0.256807	0.0184041	-0.287659	0	0	-0.44173	-0.140105	-0.372932	0.318875	-0.0506273	0	0	-0.32053	0.059548	-0.202715	0.129099	-0.550745	1.12246	0.681997	0.378512	0	0	-0.0161338	-0.437648	0.0463151	1.13911	1.5708	0	0
0.73	2.79943	1.37637	-1.11508	0.553923	0.401662	0.931766	0.16699	-0.0523818	-0.270585	0.0586407	-0.285485	0	0	-0.452746	-0.151728	-0.377955	0.335595	-0.0522145	0	0	-0.325929	0.0655574	-0.205916	0.130094	-0.552319	1.12329	0.685686	0.37927	0	0	-0.0208306	-0.433342	0.0442999	1.14117	1.5708	0	0
0.74	2.78806	1.36967	-1.10047	0.555598	0.413737	0.931099	0.163842	-0.0454969	-0.274445	0.0873427	-0.285897	0	0	-0.462138	-0.164298	-0.38173	0.353188	-0.0560089	0	0	-0.329825	0.0730956	-0.208423	0.130422	-0.552722	1.1242	0.686699	0.379496	0	0	-0.0256858	-0.427437	0.0425145	1.13991	1.5708	0	0
0.75	2.77785	1.36248	-1.08758	0.557326	0.426026	0.930628	0.156864	-0.0372089	-0.274552	0.103767	-0.294196	0	0	-0.470574	-0.176945	-0.38601	0.374158	-0.0619821	0	0	-0.333903	0.0808405	-0.210556	0.130323	-0.553777	1.12507	0.688786	0.379146	0	0	-0.0317936	-0.421332	0.0409401	1.13735	1.5708	0	0
0.76	2.78665	1.3595	-1.09337	0.559497	0.439295	0.929307	0.144717	-0.0311659	-0.280648	0.114899	-0.298231	0	0	-0.476021	-0.185693	-0.39084	0.399185	-0.0685268	0	0	-0.332539	0.0816901	-0.214441	0.125268	-0.556916	1.12403	0.697788	0.378116	0	0	-0.0434442	-0.41833	0.03984	1.13773	1.5708	0	0
0.77	2.82404	1.36006	-1.12597	0.562155	0.453935	0.926825	0.123504	-0.0272891	-0.310154	0.131166	-0.273877	0	0	-0.480315	-0.190703	-0.398166	0.429009	-0.0774232	0	0	-0.326387	0.0740508	-0.221784	0.112606	-0.564935	1.11862	0.720551	0.374029	0	0	-0.0633329	-0.420008	0.0384764	1.14475	1.5708	0	0
0.78	2.83151	1.35777	-1.13192	0.564722	0.467561	0.925983	0.110522	-0.0208869	-0.328678	0.146242	-0.266514	0	0	-0.481864	-0.199345	-0.400314	0.460789	-0.0896879	0	0	-0.323914	0.0742518	-0.223419	0.104365	-0.568875	1.11451	0.73304	0.369586	0	0	-0.0766625	-0.416989	0.0386187	1.14235	1.5708	0	0
0.79	2.81683	1.35161	-1.11811	0.567135	0.480336	0.926619	0.102895	-0.0125423	-0.33981	0.164973	-0.271234	0	0	-0.482748	-0.211072	-0.398613	0.494308	-0.108196	0	0	-0.326024	0.0816226	-0.221096	0.100634	-0.570281	1.11281	0.738223	0.365131	0	0	-0.0847045	-0.410294	0.0400348	1.13215	1.5708	0	0
0.8	2.79926	1.3451	-1.10311	0.56957	0.492906	0.9277	0.0982072	-0.0050955	-0.34474	0.189409	-0.276597	0	0	-0.481905	-0.222071	-0.394401	0.530497	-0.133401	0	0	-0.328584	0.0899654	-0.21691	0.0979558	-0.571086	1.11275	0.741685	0.359895	0	0	-0.0917266	-0.403084	0.0426924	1.11876	1.5708	0	0
0.81	2.7831	1.33992	-1.09096	0.57216	0.505425	0.928837	0.095983	0.00123322	-0.343569	0.218283	-0.276769	0	0	-0.478441	-0.231692	-0.387325	0.570868	-0.158074	0	0	-0.329813	0.0971807	-0.212088	0.0954268	-0.571319	1.1137	0.74464	0.354956	0	0	-0.0996808	-0.396087	0.0453801	1.10455	1.5708	0	0
0.82	2.76406	1.33598	-1.0772	0.57495	0.517726	0.930085	0.0936539	0.00878995	-0.336817	0.244305	-0.273761	0	0	-0.471177	-0.241522	-0.379002	0.617062	-0.179216	0	0	-0.329831	0.104216	-0.206622	0.0933337	-0.570659	1.11514	0.746625	0.350345	0	0	-0.107788	-0.389191	0.0481832	1.08895	1.5708	0	0
0.83	2.74181	1.33211	-1.0606	0.577883	0.529698	0.931522	0.0875929	0.0190849	-0.327042	0.260609	-0.270482	0	0	-0.460185	-0.252292	-0.369093	0.669002	-0.195242	0	0	-0.329769	0.111732	-0.200966	0.0918207	-0.568661	1.1165	0.746972	0.347286	0	0	-0.115368	-0.382677	0.0514746	1.07225	1.5708	0	0
0.84	2.72028	1.32811	-1.04376	0.580842	0.541531	0.932976	0.0783011	0.0305077	-0.322549	0.270024	-0.26608	0	0	-0.445782	-0.263409	-0.357603	0.724586	-0.209209	0	0	-0.329733	0.119338	-0.196423	0.0901053	-0.566516	1.11758	0.747751	0.3451	0	0	-0.123313	-0.377058	0.0552066	1.05602	1.5708	0	0
0.85	2.70385	1.3238	-1.0306	0.58365	0.553213	0.934369	0.0659858	0.0410969	-0.323034	0.275186	-0.261677	0	0	-0.42923	-0.273605	-0.345266	0.780913	-0.219114	0	0	-0.330441	0.126257	-0.193893	0.0884367	-0.564854	1.11828	0.74983	0.344124	0	0	-0.132113	-0.372554	0.058936	1.04148	1.5708	0	0
0.86	2.69256	1.32038	-1.02149	0.586278	0.564664	0.935576	0.0532105	0.0497404	-0.32781	0.278822	-0.257111	0	0	-0.409966	-0.28169	-0.332575	0.836878	-0.221753	0	0	-0.331073	0.131674	-0.193007	0.0870961	-0.563716	1.11893	0.752898	0.344531	0	0	-0.141482	-0.368772	0.0622396	1.02864	1.5708	0	0
0.87	2.68568	1.31823	-1.01587	0.588771	0.575883	0.936603	0.0401962	0.0568027	-0.333578	0.280717	-0.250739	0	0	-0.388426	-0.287584	-0.319994	0.892402	-0.217325	0	0	-0.331253	0.135205	-0.193474	0.0859932	-0.56253	1.1194	0.756078	0.346228	0	0	-0.151243	-0.365529	0.0647645	1.01711	1.5708	0	0
0.88	2.6836	1.31669	-1.01442	0.591162	0.586836	0.937632	0.0260238	0.0629421	-0.336974	0.2801	-0.242226	0	0	-0.365759	-0.291651	-0.307975	0.948445	-0.207842	0	0	-0.331916	0.136885	-0.194778	0.0849446	-0.560556	1.11876	0.758428	0.348052	0	0	-0.160737	-0.362351	0.0661174	1.00635	1.5708	0	0
0.89	2.6864	1.31464	-1.01811	0.593516	0.597514	0.938914	0.0110953	0.0685917	-0.336047	0.278418	-0.233713	0	0	-0.343435	-0.293596	-0.296106	1.00427	-0.191488	0	0	-0.334398	0.137086	-0.195668	0.0843107	-0.557683	1.11719	0.759385	0.349677	0	0	-0.169497	-0.358896	0.0663031	0.995853	1.56909	0	0
0.9	2.5906	1.36837	-0.947205	0.598288	0.606228	0.935323	0.14946	0.0483624	-0.227368	0.32431	-0.376699	0	0	-0.248977	-0.273071	-0.280578	1.08513	-0.139205	0	0	-0.276811	0.117938	-0.17851	0.082449	-0.540462	1.11811	0.732833	0.359525	0	0	-0.172932	-0.351465	0.0707508	0.968001	1.56554	0	0
0.91	2.60639	1.3665	-0.963321	0.600293	0.616412	0.937078	0.129985	0.052041	-0.226418	0.321655	-0.367368	0	0	-0.225464	-0.27111	-0.271213	1.13679	-0.103406	0	0	-0.281351	0.115482	-0.179636	0.0838345	-0.535839	1.11833	0.72978	0.362169	0	0	-0.179561	-0.348059	0.0711518	0.957019	1.56047	0	0
0.92	2.6217	1.36662	-0.979522	0.60225	0.626384	0.938736	0.114664	0.0542934	-0.223444	0.318355	-0.357343	0	0	-0.1993	-0.267486	-0.263199	1.18483	-0.062034	0	0	-0.284161	0.111561	-0.180118	0.0853373	-0.531012	1.11854	0.725776	0.363993	0	0	-0.185321	-0.345271	0.0728622	0.945908	1.554	0	0
0.93	2.63508	1.36743	-0.993963	0.604104	0.636245	0.940423	0.0998796	0.0559333	-0.221116	0.314494	-0.347635	0	0	-0.171853	-0.26355	-0.255824	1.22711	-0.0275414	0	0	-0.285932	0.107454	-0.17997	0.0868983	-0.526079	1.11919	0.720584	0.365193	0	0	-0.190212	-0.342787	0.0759555	0.934299	1.54849	0	0
0.94	2.64675	1.36835	-1.00668	0.605906	0.646032	0.942123	0.0848449	0.0574263	-0.219675	0.30932	-0.339875	0	0	-0.143532	-0.259656	-0.247852	1.26241	-0.00651366	0	0	-0.287363	0.103567	-0.179015	0.0881863	-0.521313	1.1201	0.714946	0.365929	0	0	-0.19451	-0.340509	0.0795291	0.922949	1.54527	0	0
0.95	2.65329	1.36948	-1.01431	0.607726	0.655803	0.943781	0.0684021	0.0602186	-0.216869	0.299428	-0.333032	0	0	-0.114139	-0.257038	-0.239896	1.29077	0.00535537	0	0	-0.28768	0.100452	-0.177223	0.0892139	-0.516207	1.12218	0.708089	0.367053	0	0	-0.198234	-0.338691	0.0843437	0.911661	1.54316	0	0
